ISO-10303-21;
HEADER;
/* Generated by software containing ST-Developer
 * from STEP Tools, Inc. (www.steptools.com) 
 */
/* OPTION: using custom renumber hook */

FILE_DESCRIPTION(
/* description */ ('STEP AP242 Edition 2',
'CAx-IF Rec.Pracs.---Representation and Presentation of Product Manufa
cturing Information (PMI)---4.0---2014-10-13',
'CAx-IF Rec.Pracs.---3D Tessellated Geometry---0.4---2014-09-14','2;1',
'CAx-IF Rec.Pracs.---User Defined Attributes---1.5---2016-08-15'),
/* implementation_level */ '2;1');

FILE_NAME(
/* name */ 'Part Studio 1',
/* time_stamp */ '2026-04-21T18:48:30Z',
/* author */ (''),
/* organization */ (''),
/* preprocessor_version */ 'ST-DEVELOPER v20',
/* originating_system */ 'ONSHAPE BY PTC INC, 1.213',
/* authorisation */ '  ');

FILE_SCHEMA (('AP242_MANAGED_MODEL_BASED_3D_ENGINEERING_MIM_LF { 1 0 10303 442 3 1 4 }'));
ENDSEC;

DATA;
#10=SHAPE_REPRESENTATION_RELATIONSHIP('','',#735,#12);
#11=SHAPE_REPRESENTATION_RELATIONSHIP('','',#736,#13);
#12=ADVANCED_BREP_SHAPE_REPRESENTATION('',(#731),#1243);
#13=ADVANCED_BREP_SHAPE_REPRESENTATION('',(#732),#1244);
#14=SPHERICAL_SURFACE('',#762,0.003);
#15=SPHERICAL_SURFACE('',#764,0.003);
#16=SPHERICAL_SURFACE('',#774,0.003);
#17=SPHERICAL_SURFACE('',#776,0.003);
#18=SPHERICAL_SURFACE('',#801,0.003);
#19=SPHERICAL_SURFACE('',#808,0.003);
#20=SPHERICAL_SURFACE('',#810,0.003);
#21=SPHERICAL_SURFACE('',#816,0.003);
#22=CYLINDRICAL_SURFACE('',#755,0.003);
#23=CYLINDRICAL_SURFACE('',#757,0.003);
#24=CYLINDRICAL_SURFACE('',#760,0.003);
#25=CYLINDRICAL_SURFACE('',#766,0.003);
#26=CYLINDRICAL_SURFACE('',#768,0.003);
#27=CYLINDRICAL_SURFACE('',#770,0.003);
#28=CYLINDRICAL_SURFACE('',#772,0.003);
#29=CYLINDRICAL_SURFACE('',#778,0.003);
#30=CYLINDRICAL_SURFACE('',#783,0.00127);
#31=CYLINDRICAL_SURFACE('',#786,0.00127);
#32=CYLINDRICAL_SURFACE('',#804,0.003);
#33=CYLINDRICAL_SURFACE('',#806,0.003);
#34=CYLINDRICAL_SURFACE('',#812,0.003);
#35=CYLINDRICAL_SURFACE('',#814,0.003);
#36=CIRCLE('',#741,0.003);
#37=CIRCLE('',#742,0.003);
#38=CIRCLE('',#743,0.003);
#39=CIRCLE('',#744,0.003);
#40=CIRCLE('',#753,0.00127);
#41=CIRCLE('',#754,0.00127);
#42=CIRCLE('',#756,0.003);
#43=CIRCLE('',#758,0.003);
#44=CIRCLE('',#759,0.003);
#45=CIRCLE('',#761,0.003);
#46=CIRCLE('',#763,0.003);
#47=CIRCLE('',#765,0.003);
#48=CIRCLE('',#767,0.003);
#49=CIRCLE('',#769,0.003);
#50=CIRCLE('',#771,0.003);
#51=CIRCLE('',#773,0.003);
#52=CIRCLE('',#775,0.003);
#53=CIRCLE('',#777,0.003);
#54=CIRCLE('',#784,0.00127);
#55=CIRCLE('',#787,0.00127);
#56=CIRCLE('',#792,0.00282842712474619);
#57=CIRCLE('',#793,0.00282842712474619);
#58=CIRCLE('',#794,0.00282842712474619);
#59=CIRCLE('',#795,0.00282842712474619);
#60=CIRCLE('',#802,0.003);
#61=CIRCLE('',#803,0.003);
#62=CIRCLE('',#805,0.003);
#63=CIRCLE('',#807,0.003);
#64=CIRCLE('',#809,0.003);
#65=CIRCLE('',#811,0.003);
#66=CIRCLE('',#813,0.003);
#67=CIRCLE('',#815,0.003);
#68=ORIENTED_EDGE('',*,*,#258,.T.);
#69=ORIENTED_EDGE('',*,*,#259,.T.);
#70=ORIENTED_EDGE('',*,*,#260,.T.);
#71=ORIENTED_EDGE('',*,*,#261,.T.);
#72=ORIENTED_EDGE('',*,*,#262,.T.);
#73=ORIENTED_EDGE('',*,*,#263,.F.);
#74=ORIENTED_EDGE('',*,*,#264,.F.);
#75=ORIENTED_EDGE('',*,*,#265,.T.);
#76=ORIENTED_EDGE('',*,*,#266,.F.);
#77=ORIENTED_EDGE('',*,*,#267,.T.);
#78=ORIENTED_EDGE('',*,*,#268,.T.);
#79=ORIENTED_EDGE('',*,*,#269,.T.);
#80=ORIENTED_EDGE('',*,*,#270,.T.);
#81=ORIENTED_EDGE('',*,*,#271,.T.);
#82=ORIENTED_EDGE('',*,*,#272,.T.);
#83=ORIENTED_EDGE('',*,*,#273,.T.);
#84=ORIENTED_EDGE('',*,*,#261,.F.);
#85=ORIENTED_EDGE('',*,*,#274,.T.);
#86=ORIENTED_EDGE('',*,*,#275,.F.);
#87=ORIENTED_EDGE('',*,*,#276,.T.);
#88=ORIENTED_EDGE('',*,*,#277,.F.);
#89=ORIENTED_EDGE('',*,*,#278,.T.);
#90=ORIENTED_EDGE('',*,*,#264,.T.);
#91=ORIENTED_EDGE('',*,*,#279,.F.);
#92=ORIENTED_EDGE('',*,*,#280,.T.);
#93=ORIENTED_EDGE('',*,*,#281,.T.);
#94=ORIENTED_EDGE('',*,*,#275,.T.);
#95=ORIENTED_EDGE('',*,*,#282,.T.);
#96=ORIENTED_EDGE('',*,*,#283,.T.);
#97=ORIENTED_EDGE('',*,*,#284,.T.);
#98=ORIENTED_EDGE('',*,*,#270,.F.);
#99=ORIENTED_EDGE('',*,*,#285,.T.);
#100=ORIENTED_EDGE('',*,*,#272,.F.);
#101=ORIENTED_EDGE('',*,*,#286,.T.);
#102=ORIENTED_EDGE('',*,*,#287,.T.);
#103=ORIENTED_EDGE('',*,*,#288,.T.);
#104=ORIENTED_EDGE('',*,*,#289,.T.);
#105=ORIENTED_EDGE('',*,*,#290,.T.);
#106=ORIENTED_EDGE('',*,*,#291,.T.);
#107=ORIENTED_EDGE('',*,*,#292,.T.);
#108=ORIENTED_EDGE('',*,*,#293,.T.);
#109=ORIENTED_EDGE('',*,*,#265,.F.);
#110=ORIENTED_EDGE('',*,*,#278,.F.);
#111=ORIENTED_EDGE('',*,*,#294,.T.);
#112=ORIENTED_EDGE('',*,*,#295,.F.);
#113=ORIENTED_EDGE('',*,*,#294,.F.);
#114=ORIENTED_EDGE('',*,*,#277,.T.);
#115=ORIENTED_EDGE('',*,*,#296,.T.);
#116=ORIENTED_EDGE('',*,*,#297,.F.);
#117=ORIENTED_EDGE('',*,*,#296,.F.);
#118=ORIENTED_EDGE('',*,*,#279,.T.);
#119=ORIENTED_EDGE('',*,*,#263,.T.);
#120=ORIENTED_EDGE('',*,*,#298,.F.);
#121=ORIENTED_EDGE('',*,*,#299,.F.);
#122=ORIENTED_EDGE('',*,*,#293,.F.);
#123=ORIENTED_EDGE('',*,*,#295,.T.);
#124=ORIENTED_EDGE('',*,*,#297,.T.);
#125=ORIENTED_EDGE('',*,*,#262,.F.);
#126=ORIENTED_EDGE('',*,*,#271,.F.);
#127=ORIENTED_EDGE('',*,*,#284,.F.);
#128=ORIENTED_EDGE('',*,*,#300,.F.);
#129=ORIENTED_EDGE('',*,*,#286,.F.);
#130=ORIENTED_EDGE('',*,*,#301,.F.);
#131=ORIENTED_EDGE('',*,*,#287,.F.);
#132=ORIENTED_EDGE('',*,*,#302,.F.);
#133=ORIENTED_EDGE('',*,*,#292,.F.);
#134=ORIENTED_EDGE('',*,*,#273,.F.);
#135=ORIENTED_EDGE('',*,*,#288,.F.);
#136=ORIENTED_EDGE('',*,*,#303,.F.);
#137=ORIENTED_EDGE('',*,*,#304,.F.);
#138=ORIENTED_EDGE('',*,*,#258,.F.);
#139=ORIENTED_EDGE('',*,*,#302,.T.);
#140=ORIENTED_EDGE('',*,*,#300,.T.);
#141=ORIENTED_EDGE('',*,*,#305,.F.);
#142=ORIENTED_EDGE('',*,*,#303,.T.);
#143=ORIENTED_EDGE('',*,*,#301,.T.);
#144=ORIENTED_EDGE('',*,*,#306,.F.);
#145=ORIENTED_EDGE('',*,*,#276,.F.);
#146=ORIENTED_EDGE('',*,*,#281,.F.);
#147=ORIENTED_EDGE('',*,*,#307,.F.);
#148=ORIENTED_EDGE('',*,*,#285,.F.);
#149=ORIENTED_EDGE('',*,*,#305,.T.);
#150=ORIENTED_EDGE('',*,*,#283,.F.);
#151=ORIENTED_EDGE('',*,*,#308,.F.);
#152=ORIENTED_EDGE('',*,*,#289,.F.);
#153=ORIENTED_EDGE('',*,*,#306,.T.);
#154=ORIENTED_EDGE('',*,*,#291,.F.);
#155=ORIENTED_EDGE('',*,*,#309,.F.);
#156=ORIENTED_EDGE('',*,*,#310,.F.);
#157=ORIENTED_EDGE('',*,*,#274,.F.);
#158=ORIENTED_EDGE('',*,*,#260,.F.);
#159=ORIENTED_EDGE('',*,*,#311,.F.);
#160=ORIENTED_EDGE('',*,*,#312,.F.);
#161=ORIENTED_EDGE('',*,*,#282,.F.);
#162=ORIENTED_EDGE('',*,*,#308,.T.);
#163=ORIENTED_EDGE('',*,*,#307,.T.);
#164=ORIENTED_EDGE('',*,*,#313,.F.);
#165=ORIENTED_EDGE('',*,*,#312,.T.);
#166=ORIENTED_EDGE('',*,*,#309,.T.);
#167=ORIENTED_EDGE('',*,*,#314,.F.);
#168=ORIENTED_EDGE('',*,*,#313,.T.);
#169=ORIENTED_EDGE('',*,*,#280,.F.);
#170=ORIENTED_EDGE('',*,*,#314,.T.);
#171=ORIENTED_EDGE('',*,*,#290,.F.);
#172=ORIENTED_EDGE('',*,*,#259,.F.);
#173=ORIENTED_EDGE('',*,*,#315,.F.);
#174=ORIENTED_EDGE('',*,*,#266,.T.);
#175=ORIENTED_EDGE('',*,*,#316,.T.);
#176=ORIENTED_EDGE('',*,*,#304,.T.);
#177=ORIENTED_EDGE('',*,*,#317,.F.);
#178=ORIENTED_EDGE('',*,*,#267,.F.);
#179=ORIENTED_EDGE('',*,*,#315,.T.);
#180=ORIENTED_EDGE('',*,*,#310,.T.);
#181=ORIENTED_EDGE('',*,*,#318,.F.);
#182=ORIENTED_EDGE('',*,*,#268,.F.);
#183=ORIENTED_EDGE('',*,*,#317,.T.);
#184=ORIENTED_EDGE('',*,*,#311,.T.);
#185=ORIENTED_EDGE('',*,*,#316,.F.);
#186=ORIENTED_EDGE('',*,*,#269,.F.);
#187=ORIENTED_EDGE('',*,*,#318,.T.);
#188=ORIENTED_EDGE('',*,*,#319,.F.);
#189=ORIENTED_EDGE('',*,*,#299,.T.);
#190=ORIENTED_EDGE('',*,*,#319,.T.);
#191=ORIENTED_EDGE('',*,*,#320,.F.);
#192=ORIENTED_EDGE('',*,*,#298,.T.);
#193=ORIENTED_EDGE('',*,*,#320,.T.);
#194=ORIENTED_EDGE('',*,*,#321,.T.);
#195=ORIENTED_EDGE('',*,*,#322,.T.);
#196=ORIENTED_EDGE('',*,*,#323,.T.);
#197=ORIENTED_EDGE('',*,*,#324,.T.);
#198=ORIENTED_EDGE('',*,*,#325,.T.);
#199=ORIENTED_EDGE('',*,*,#326,.T.);
#200=ORIENTED_EDGE('',*,*,#327,.T.);
#201=ORIENTED_EDGE('',*,*,#328,.T.);
#202=ORIENTED_EDGE('',*,*,#329,.T.);
#203=ORIENTED_EDGE('',*,*,#330,.T.);
#204=ORIENTED_EDGE('',*,*,#331,.T.);
#205=ORIENTED_EDGE('',*,*,#332,.T.);
#206=ORIENTED_EDGE('',*,*,#333,.F.);
#207=ORIENTED_EDGE('',*,*,#334,.T.);
#208=ORIENTED_EDGE('',*,*,#335,.T.);
#209=ORIENTED_EDGE('',*,*,#336,.F.);
#210=ORIENTED_EDGE('',*,*,#337,.F.);
#211=ORIENTED_EDGE('',*,*,#333,.T.);
#212=ORIENTED_EDGE('',*,*,#338,.T.);
#213=ORIENTED_EDGE('',*,*,#339,.F.);
#214=ORIENTED_EDGE('',*,*,#334,.F.);
#215=ORIENTED_EDGE('',*,*,#337,.T.);
#216=ORIENTED_EDGE('',*,*,#340,.T.);
#217=ORIENTED_EDGE('',*,*,#341,.F.);
#218=ORIENTED_EDGE('',*,*,#335,.F.);
#219=ORIENTED_EDGE('',*,*,#341,.T.);
#220=ORIENTED_EDGE('',*,*,#342,.T.);
#221=ORIENTED_EDGE('',*,*,#343,.F.);
#222=ORIENTED_EDGE('',*,*,#338,.F.);
#223=ORIENTED_EDGE('',*,*,#336,.T.);
#224=ORIENTED_EDGE('',*,*,#343,.T.);
#225=ORIENTED_EDGE('',*,*,#344,.F.);
#226=ORIENTED_EDGE('',*,*,#339,.T.);
#227=ORIENTED_EDGE('',*,*,#344,.T.);
#228=ORIENTED_EDGE('',*,*,#342,.F.);
#229=ORIENTED_EDGE('',*,*,#340,.F.);
#230=ORIENTED_EDGE('',*,*,#345,.F.);
#231=ORIENTED_EDGE('',*,*,#330,.F.);
#232=ORIENTED_EDGE('',*,*,#346,.F.);
#233=ORIENTED_EDGE('',*,*,#346,.T.);
#234=ORIENTED_EDGE('',*,*,#329,.F.);
#235=ORIENTED_EDGE('',*,*,#347,.F.);
#236=ORIENTED_EDGE('',*,*,#324,.F.);
#237=ORIENTED_EDGE('',*,*,#345,.T.);
#238=ORIENTED_EDGE('',*,*,#323,.F.);
#239=ORIENTED_EDGE('',*,*,#348,.F.);
#240=ORIENTED_EDGE('',*,*,#331,.F.);
#241=ORIENTED_EDGE('',*,*,#347,.T.);
#242=ORIENTED_EDGE('',*,*,#328,.F.);
#243=ORIENTED_EDGE('',*,*,#349,.F.);
#244=ORIENTED_EDGE('',*,*,#332,.F.);
#245=ORIENTED_EDGE('',*,*,#348,.T.);
#246=ORIENTED_EDGE('',*,*,#350,.F.);
#247=ORIENTED_EDGE('',*,*,#349,.T.);
#248=ORIENTED_EDGE('',*,*,#327,.F.);
#249=ORIENTED_EDGE('',*,*,#351,.F.);
#250=ORIENTED_EDGE('',*,*,#321,.F.);
#251=ORIENTED_EDGE('',*,*,#350,.T.);
#252=ORIENTED_EDGE('',*,*,#322,.F.);
#253=ORIENTED_EDGE('',*,*,#352,.F.);
#254=ORIENTED_EDGE('',*,*,#325,.F.);
#255=ORIENTED_EDGE('',*,*,#352,.T.);
#256=ORIENTED_EDGE('',*,*,#351,.T.);
#257=ORIENTED_EDGE('',*,*,#326,.F.);
#258=EDGE_CURVE('',#353,#354,#411,.T.);
#259=EDGE_CURVE('',#354,#355,#412,.T.);
#260=EDGE_CURVE('',#355,#356,#413,.F.);
#261=EDGE_CURVE('',#356,#353,#414,.T.);
#262=EDGE_CURVE('',#357,#358,#415,.T.);
#263=EDGE_CURVE('',#359,#358,#416,.T.);
#264=EDGE_CURVE('',#360,#359,#417,.T.);
#265=EDGE_CURVE('',#360,#357,#418,.T.);
#266=EDGE_CURVE('',#361,#362,#419,.T.);
#267=EDGE_CURVE('',#361,#363,#420,.T.);
#268=EDGE_CURVE('',#363,#364,#421,.F.);
#269=EDGE_CURVE('',#364,#362,#422,.F.);
#270=EDGE_CURVE('',#365,#366,#423,.T.);
#271=EDGE_CURVE('',#366,#367,#36,.T.);
#272=EDGE_CURVE('',#367,#368,#424,.T.);
#273=EDGE_CURVE('',#368,#353,#37,.T.);
#274=EDGE_CURVE('',#356,#369,#38,.T.);
#275=EDGE_CURVE('',#370,#369,#425,.T.);
#276=EDGE_CURVE('',#370,#365,#39,.T.);
#277=EDGE_CURVE('',#371,#372,#426,.T.);
#278=EDGE_CURVE('',#371,#360,#427,.T.);
#279=EDGE_CURVE('',#372,#359,#428,.T.);
#280=EDGE_CURVE('',#373,#374,#429,.F.);
#281=EDGE_CURVE('',#374,#370,#430,.F.);
#282=EDGE_CURVE('',#369,#373,#431,.T.);
#283=EDGE_CURVE('',#375,#376,#432,.T.);
#284=EDGE_CURVE('',#376,#366,#433,.F.);
#285=EDGE_CURVE('',#365,#375,#434,.T.);
#286=EDGE_CURVE('',#367,#377,#435,.T.);
#287=EDGE_CURVE('',#377,#378,#436,.T.);
#288=EDGE_CURVE('',#378,#368,#437,.F.);
#289=EDGE_CURVE('',#379,#380,#438,.F.);
#290=EDGE_CURVE('',#380,#381,#439,.T.);
#291=EDGE_CURVE('',#381,#382,#440,.T.);
#292=EDGE_CURVE('',#382,#379,#441,.F.);
#293=EDGE_CURVE('',#383,#357,#442,.T.);
#294=EDGE_CURVE('',#371,#383,#443,.T.);
#295=EDGE_CURVE('',#383,#384,#444,.T.);
#296=EDGE_CURVE('',#372,#384,#445,.T.);
#297=EDGE_CURVE('',#384,#358,#446,.T.);
#298=EDGE_CURVE('',#385,#385,#40,.T.);
#299=EDGE_CURVE('',#386,#386,#41,.T.);
#300=EDGE_CURVE('',#377,#376,#42,.T.);
#301=EDGE_CURVE('',#378,#382,#43,.T.);
#302=EDGE_CURVE('',#379,#377,#44,.T.);
#303=EDGE_CURVE('',#387,#378,#45,.T.);
#304=EDGE_CURVE('',#354,#387,#447,.T.);
#305=EDGE_CURVE('',#379,#376,#46,.F.);
#306=EDGE_CURVE('',#387,#382,#47,.F.);
#307=EDGE_CURVE('',#375,#374,#48,.T.);
#308=EDGE_CURVE('',#380,#375,#49,.T.);
#309=EDGE_CURVE('',#388,#381,#50,.T.);
#310=EDGE_CURVE('',#387,#388,#448,.F.);
#311=EDGE_CURVE('',#388,#355,#449,.F.);
#312=EDGE_CURVE('',#373,#388,#51,.T.);
#313=EDGE_CURVE('',#380,#374,#52,.F.);
#314=EDGE_CURVE('',#373,#381,#53,.F.);
#315=EDGE_CURVE('',#361,#354,#450,.T.);
#316=EDGE_CURVE('',#362,#355,#451,.T.);
#317=EDGE_CURVE('',#363,#387,#452,.T.);
#318=EDGE_CURVE('',#364,#388,#453,.T.);
#319=EDGE_CURVE('',#389,#389,#54,.T.);
#320=EDGE_CURVE('',#390,#390,#55,.T.);
#321=EDGE_CURVE('',#391,#392,#454,.F.);
#322=EDGE_CURVE('',#392,#393,#455,.F.);
#323=EDGE_CURVE('',#393,#394,#456,.T.);
#324=EDGE_CURVE('',#394,#391,#457,.T.);
#325=EDGE_CURVE('',#395,#396,#458,.T.);
#326=EDGE_CURVE('',#396,#397,#56,.F.);
#327=EDGE_CURVE('',#397,#398,#459,.T.);
#328=EDGE_CURVE('',#398,#399,#57,.F.);
#329=EDGE_CURVE('',#399,#400,#460,.T.);
#330=EDGE_CURVE('',#400,#401,#58,.F.);
#331=EDGE_CURVE('',#401,#402,#461,.T.);
#332=EDGE_CURVE('',#402,#395,#59,.F.);
#333=EDGE_CURVE('',#403,#404,#462,.T.);
#334=EDGE_CURVE('',#403,#405,#463,.T.);
#335=EDGE_CURVE('',#405,#406,#464,.T.);
#336=EDGE_CURVE('',#404,#406,#465,.T.);
#337=EDGE_CURVE('',#403,#407,#466,.T.);
#338=EDGE_CURVE('',#404,#408,#467,.T.);
#339=EDGE_CURVE('',#407,#408,#468,.T.);
#340=EDGE_CURVE('',#407,#409,#469,.T.);
#341=EDGE_CURVE('',#405,#409,#470,.T.);
#342=EDGE_CURVE('',#409,#410,#471,.T.);
#343=EDGE_CURVE('',#406,#410,#472,.T.);
#344=EDGE_CURVE('',#408,#410,#473,.T.);
#345=EDGE_CURVE('',#401,#394,#60,.T.);
#346=EDGE_CURVE('',#394,#400,#61,.T.);
#347=EDGE_CURVE('',#391,#399,#62,.T.);
#348=EDGE_CURVE('',#402,#393,#63,.T.);
#349=EDGE_CURVE('',#391,#398,#64,.T.);
#350=EDGE_CURVE('',#395,#393,#65,.T.);
#351=EDGE_CURVE('',#392,#397,#66,.T.);
#352=EDGE_CURVE('',#396,#392,#67,.T.);
#353=VERTEX_POINT('',#1043);
#354=VERTEX_POINT('',#1044);
#355=VERTEX_POINT('',#1046);
#356=VERTEX_POINT('',#1048);
#357=VERTEX_POINT('',#1052);
#358=VERTEX_POINT('',#1053);
#359=VERTEX_POINT('',#1055);
#360=VERTEX_POINT('',#1057);
#361=VERTEX_POINT('',#1060);
#362=VERTEX_POINT('',#1061);
#363=VERTEX_POINT('',#1063);
#364=VERTEX_POINT('',#1065);
#365=VERTEX_POINT('',#1069);
#366=VERTEX_POINT('',#1070);
#367=VERTEX_POINT('',#1072);
#368=VERTEX_POINT('',#1074);
#369=VERTEX_POINT('',#1077);
#370=VERTEX_POINT('',#1079);
#371=VERTEX_POINT('',#1082);
#372=VERTEX_POINT('',#1083);
#373=VERTEX_POINT('',#1088);
#374=VERTEX_POINT('',#1089);
#375=VERTEX_POINT('',#1094);
#376=VERTEX_POINT('',#1095);
#377=VERTEX_POINT('',#1100);
#378=VERTEX_POINT('',#1102);
#379=VERTEX_POINT('',#1106);
#380=VERTEX_POINT('',#1107);
#381=VERTEX_POINT('',#1109);
#382=VERTEX_POINT('',#1111);
#383=VERTEX_POINT('',#1115);
#384=VERTEX_POINT('',#1119);
#385=VERTEX_POINT('',#1125);
#386=VERTEX_POINT('',#1127);
#387=VERTEX_POINT('',#1135);
#388=VERTEX_POINT('',#1147);
#389=VERTEX_POINT('',#1167);
#390=VERTEX_POINT('',#1171);
#391=VERTEX_POINT('',#1176);
#392=VERTEX_POINT('',#1177);
#393=VERTEX_POINT('',#1179);
#394=VERTEX_POINT('',#1181);
#395=VERTEX_POINT('',#1185);
#396=VERTEX_POINT('',#1186);
#397=VERTEX_POINT('',#1188);
#398=VERTEX_POINT('',#1190);
#399=VERTEX_POINT('',#1192);
#400=VERTEX_POINT('',#1194);
#401=VERTEX_POINT('',#1196);
#402=VERTEX_POINT('',#1198);
#403=VERTEX_POINT('',#1201);
#404=VERTEX_POINT('',#1202);
#405=VERTEX_POINT('',#1204);
#406=VERTEX_POINT('',#1206);
#407=VERTEX_POINT('',#1210);
#408=VERTEX_POINT('',#1212);
#409=VERTEX_POINT('',#1216);
#410=VERTEX_POINT('',#1220);
#411=LINE('',#1042,#474);
#412=LINE('',#1045,#475);
#413=LINE('',#1047,#476);
#414=LINE('',#1049,#477);
#415=LINE('',#1051,#478);
#416=LINE('',#1054,#479);
#417=LINE('',#1056,#480);
#418=LINE('',#1058,#481);
#419=LINE('',#1059,#482);
#420=LINE('',#1062,#483);
#421=LINE('',#1064,#484);
#422=LINE('',#1066,#485);
#423=LINE('',#1068,#486);
#424=LINE('',#1073,#487);
#425=LINE('',#1078,#488);
#426=LINE('',#1081,#489);
#427=LINE('',#1084,#490);
#428=LINE('',#1085,#491);
#429=LINE('',#1087,#492);
#430=LINE('',#1090,#493);
#431=LINE('',#1091,#494);
#432=LINE('',#1093,#495);
#433=LINE('',#1096,#496);
#434=LINE('',#1097,#497);
#435=LINE('',#1099,#498);
#436=LINE('',#1101,#499);
#437=LINE('',#1103,#500);
#438=LINE('',#1105,#501);
#439=LINE('',#1108,#502);
#440=LINE('',#1110,#503);
#441=LINE('',#1112,#504);
#442=LINE('',#1114,#505);
#443=LINE('',#1116,#506);
#444=LINE('',#1118,#507);
#445=LINE('',#1120,#508);
#446=LINE('',#1122,#509);
#447=LINE('',#1136,#510);
#448=LINE('',#1148,#511);
#449=LINE('',#1150,#512);
#450=LINE('',#1158,#513);
#451=LINE('',#1159,#514);
#452=LINE('',#1161,#515);
#453=LINE('',#1163,#516);
#454=LINE('',#1175,#517);
#455=LINE('',#1178,#518);
#456=LINE('',#1180,#519);
#457=LINE('',#1182,#520);
#458=LINE('',#1184,#521);
#459=LINE('',#1189,#522);
#460=LINE('',#1193,#523);
#461=LINE('',#1197,#524);
#462=LINE('',#1200,#525);
#463=LINE('',#1203,#526);
#464=LINE('',#1205,#527);
#465=LINE('',#1207,#528);
#466=LINE('',#1209,#529);
#467=LINE('',#1211,#530);
#468=LINE('',#1213,#531);
#469=LINE('',#1215,#532);
#470=LINE('',#1217,#533);
#471=LINE('',#1219,#534);
#472=LINE('',#1221,#535);
#473=LINE('',#1223,#536);
#474=VECTOR('',#821,1.);
#475=VECTOR('',#822,1.);
#476=VECTOR('',#823,1.);
#477=VECTOR('',#824,1.);
#478=VECTOR('',#827,1.);
#479=VECTOR('',#828,1.);
#480=VECTOR('',#829,1.);
#481=VECTOR('',#830,1.);
#482=VECTOR('',#831,1.);
#483=VECTOR('',#832,1.);
#484=VECTOR('',#833,1.);
#485=VECTOR('',#834,1.);
#486=VECTOR('',#837,1.);
#487=VECTOR('',#840,1.);
#488=VECTOR('',#845,1.);
#489=VECTOR('',#848,1.);
#490=VECTOR('',#849,1.);
#491=VECTOR('',#850,1.);
#492=VECTOR('',#853,1.);
#493=VECTOR('',#854,1.);
#494=VECTOR('',#855,1.);
#495=VECTOR('',#858,1.);
#496=VECTOR('',#859,1.);
#497=VECTOR('',#860,1.);
#498=VECTOR('',#863,1.);
#499=VECTOR('',#864,1.);
#500=VECTOR('',#865,1.);
#501=VECTOR('',#868,1.);
#502=VECTOR('',#869,1.);
#503=VECTOR('',#870,1.);
#504=VECTOR('',#871,1.);
#505=VECTOR('',#874,1.);
#506=VECTOR('',#875,1.);
#507=VECTOR('',#878,1.);
#508=VECTOR('',#879,1.);
#509=VECTOR('',#882,1.);
#510=VECTOR('',#903,1.);
#511=VECTOR('',#924,1.);
#512=VECTOR('',#927,1.);
#513=VECTOR('',#942,1.);
#514=VECTOR('',#943,1.);
#515=VECTOR('',#946,1.);
#516=VECTOR('',#949,1.);
#517=VECTOR('',#968,1.);
#518=VECTOR('',#969,1.);
#519=VECTOR('',#970,1.);
#520=VECTOR('',#971,1.);
#521=VECTOR('',#974,1.);
#522=VECTOR('',#977,1.);
#523=VECTOR('',#980,1.);
#524=VECTOR('',#983,1.);
#525=VECTOR('',#986,1.);
#526=VECTOR('',#987,1.);
#527=VECTOR('',#988,1.);
#528=VECTOR('',#989,1.);
#529=VECTOR('',#992,1.);
#530=VECTOR('',#993,1.);
#531=VECTOR('',#994,1.);
#532=VECTOR('',#997,1.);
#533=VECTOR('',#998,1.);
#534=VECTOR('',#1001,1.);
#535=VECTOR('',#1002,1.);
#536=VECTOR('',#1005,1.);
#537=EDGE_LOOP('',(#68,#69,#70,#71));
#538=EDGE_LOOP('',(#72,#73,#74,#75));
#539=EDGE_LOOP('',(#76,#77,#78,#79));
#540=EDGE_LOOP('',(#80,#81,#82,#83,#84,#85,#86,#87));
#541=EDGE_LOOP('',(#88,#89,#90,#91));
#542=EDGE_LOOP('',(#92,#93,#94,#95));
#543=EDGE_LOOP('',(#96,#97,#98,#99));
#544=EDGE_LOOP('',(#100,#101,#102,#103));
#545=EDGE_LOOP('',(#104,#105,#106,#107));
#546=EDGE_LOOP('',(#108,#109,#110,#111));
#547=EDGE_LOOP('',(#112,#113,#114,#115));
#548=EDGE_LOOP('',(#116,#117,#118,#119));
#549=EDGE_LOOP('',(#120));
#550=EDGE_LOOP('',(#121));
#551=EDGE_LOOP('',(#122,#123,#124,#125));
#552=EDGE_LOOP('',(#126,#127,#128,#129));
#553=EDGE_LOOP('',(#130,#131,#132,#133));
#554=EDGE_LOOP('',(#134,#135,#136,#137,#138));
#555=EDGE_LOOP('',(#139,#140,#141));
#556=EDGE_LOOP('',(#142,#143,#144));
#557=EDGE_LOOP('',(#145,#146,#147,#148));
#558=EDGE_LOOP('',(#149,#150,#151,#152));
#559=EDGE_LOOP('',(#153,#154,#155,#156));
#560=EDGE_LOOP('',(#157,#158,#159,#160,#161));
#561=EDGE_LOOP('',(#162,#163,#164));
#562=EDGE_LOOP('',(#165,#166,#167));
#563=EDGE_LOOP('',(#168,#169,#170,#171));
#564=EDGE_LOOP('',(#172,#173,#174,#175));
#565=EDGE_LOOP('',(#176,#177,#178,#179));
#566=EDGE_LOOP('',(#180,#181,#182,#183));
#567=EDGE_LOOP('',(#184,#185,#186,#187));
#568=EDGE_LOOP('',(#188));
#569=EDGE_LOOP('',(#189));
#570=EDGE_LOOP('',(#190));
#571=EDGE_LOOP('',(#191));
#572=EDGE_LOOP('',(#192));
#573=EDGE_LOOP('',(#193));
#574=EDGE_LOOP('',(#194,#195,#196,#197));
#575=EDGE_LOOP('',(#198,#199,#200,#201,#202,#203,#204,#205));
#576=EDGE_LOOP('',(#206,#207,#208,#209));
#577=EDGE_LOOP('',(#210,#211,#212,#213));
#578=EDGE_LOOP('',(#214,#215,#216,#217));
#579=EDGE_LOOP('',(#218,#219,#220,#221));
#580=EDGE_LOOP('',(#222,#223,#224,#225));
#581=EDGE_LOOP('',(#226,#227,#228,#229));
#582=EDGE_LOOP('',(#230,#231,#232));
#583=EDGE_LOOP('',(#233,#234,#235,#236));
#584=EDGE_LOOP('',(#237,#238,#239,#240));
#585=EDGE_LOOP('',(#241,#242,#243));
#586=EDGE_LOOP('',(#244,#245,#246));
#587=EDGE_LOOP('',(#247,#248,#249,#250));
#588=EDGE_LOOP('',(#251,#252,#253,#254));
#589=EDGE_LOOP('',(#255,#256,#257));
#590=FACE_BOUND('',#537,.T.);
#591=FACE_BOUND('',#538,.T.);
#592=FACE_BOUND('',#539,.T.);
#593=FACE_BOUND('',#540,.T.);
#594=FACE_BOUND('',#541,.T.);
#595=FACE_BOUND('',#542,.T.);
#596=FACE_BOUND('',#543,.T.);
#597=FACE_BOUND('',#544,.T.);
#598=FACE_BOUND('',#545,.T.);
#599=FACE_BOUND('',#546,.T.);
#600=FACE_BOUND('',#547,.T.);
#601=FACE_BOUND('',#548,.T.);
#602=FACE_BOUND('',#549,.T.);
#603=FACE_BOUND('',#550,.T.);
#604=FACE_BOUND('',#551,.T.);
#605=FACE_BOUND('',#552,.T.);
#606=FACE_BOUND('',#553,.T.);
#607=FACE_BOUND('',#554,.T.);
#608=FACE_BOUND('',#555,.T.);
#609=FACE_BOUND('',#556,.T.);
#610=FACE_BOUND('',#557,.T.);
#611=FACE_BOUND('',#558,.T.);
#612=FACE_BOUND('',#559,.T.);
#613=FACE_BOUND('',#560,.T.);
#614=FACE_BOUND('',#561,.T.);
#615=FACE_BOUND('',#562,.T.);
#616=FACE_BOUND('',#563,.T.);
#617=FACE_BOUND('',#564,.T.);
#618=FACE_BOUND('',#565,.T.);
#619=FACE_BOUND('',#566,.T.);
#620=FACE_BOUND('',#567,.T.);
#621=FACE_BOUND('',#568,.T.);
#622=FACE_BOUND('',#569,.T.);
#623=FACE_BOUND('',#570,.T.);
#624=FACE_BOUND('',#571,.T.);
#625=FACE_BOUND('',#572,.T.);
#626=FACE_BOUND('',#573,.T.);
#627=FACE_BOUND('',#574,.T.);
#628=FACE_BOUND('',#575,.T.);
#629=FACE_BOUND('',#576,.T.);
#630=FACE_BOUND('',#577,.T.);
#631=FACE_BOUND('',#578,.T.);
#632=FACE_BOUND('',#579,.T.);
#633=FACE_BOUND('',#580,.T.);
#634=FACE_BOUND('',#581,.T.);
#635=FACE_BOUND('',#582,.T.);
#636=FACE_BOUND('',#583,.T.);
#637=FACE_BOUND('',#584,.T.);
#638=FACE_BOUND('',#585,.T.);
#639=FACE_BOUND('',#586,.T.);
#640=FACE_BOUND('',#587,.T.);
#641=FACE_BOUND('',#588,.T.);
#642=FACE_BOUND('',#589,.T.);
#643=PLANE('',#738);
#644=PLANE('',#739);
#645=PLANE('',#740);
#646=PLANE('',#745);
#647=PLANE('',#746);
#648=PLANE('',#747);
#649=PLANE('',#748);
#650=PLANE('',#749);
#651=PLANE('',#750);
#652=PLANE('',#751);
#653=PLANE('',#752);
#654=PLANE('',#779);
#655=PLANE('',#780);
#656=PLANE('',#781);
#657=PLANE('',#782);
#658=PLANE('',#785);
#659=PLANE('',#788);
#660=PLANE('',#790);
#661=PLANE('',#791);
#662=PLANE('',#796);
#663=PLANE('',#797);
#664=PLANE('',#798);
#665=PLANE('',#799);
#666=PLANE('',#800);
#667=ADVANCED_FACE('',(#590),#643,.T.);
#668=ADVANCED_FACE('',(#591,#592),#644,.F.);
#669=ADVANCED_FACE('',(#593,#594),#645,.T.);
#670=ADVANCED_FACE('',(#595),#646,.T.);
#671=ADVANCED_FACE('',(#596),#647,.F.);
#672=ADVANCED_FACE('',(#597),#648,.F.);
#673=ADVANCED_FACE('',(#598),#649,.F.);
#674=ADVANCED_FACE('',(#599),#650,.F.);
#675=ADVANCED_FACE('',(#600),#651,.T.);
#676=ADVANCED_FACE('',(#601),#652,.T.);
#677=ADVANCED_FACE('',(#602,#603,#604),#653,.T.);
#678=ADVANCED_FACE('',(#605),#22,.T.);
#679=ADVANCED_FACE('',(#606),#23,.T.);
#680=ADVANCED_FACE('',(#607),#24,.T.);
#681=ADVANCED_FACE('',(#608),#14,.T.);
#682=ADVANCED_FACE('',(#609),#15,.T.);
#683=ADVANCED_FACE('',(#610),#25,.T.);
#684=ADVANCED_FACE('',(#611),#26,.T.);
#685=ADVANCED_FACE('',(#612),#27,.T.);
#686=ADVANCED_FACE('',(#613),#28,.T.);
#687=ADVANCED_FACE('',(#614),#16,.T.);
#688=ADVANCED_FACE('',(#615),#17,.T.);
#689=ADVANCED_FACE('',(#616),#29,.T.);
#690=ADVANCED_FACE('',(#617),#654,.T.);
#691=ADVANCED_FACE('',(#618),#655,.F.);
#692=ADVANCED_FACE('',(#619),#656,.F.);
#693=ADVANCED_FACE('',(#620),#657,.F.);
#694=ADVANCED_FACE('',(#621,#622),#30,.T.);
#695=ADVANCED_FACE('',(#623),#658,.T.);
#696=ADVANCED_FACE('',(#624,#625),#31,.T.);
#697=ADVANCED_FACE('',(#626),#659,.T.);
#698=ADVANCED_FACE('',(#627),#660,.T.);
#699=ADVANCED_FACE('',(#628,#629),#661,.F.);
#700=ADVANCED_FACE('',(#630),#662,.T.);
#701=ADVANCED_FACE('',(#631),#663,.F.);
#702=ADVANCED_FACE('',(#632),#664,.F.);
#703=ADVANCED_FACE('',(#633),#665,.T.);
#704=ADVANCED_FACE('',(#634),#666,.F.);
#705=ADVANCED_FACE('',(#635),#18,.T.);
#706=ADVANCED_FACE('',(#636),#32,.T.);
#707=ADVANCED_FACE('',(#637),#33,.T.);
#708=ADVANCED_FACE('',(#638),#19,.T.);
#709=ADVANCED_FACE('',(#639),#20,.T.);
#710=ADVANCED_FACE('',(#640),#34,.T.);
#711=ADVANCED_FACE('',(#641),#35,.T.);
#712=ADVANCED_FACE('',(#642),#21,.T.);
#713=CLOSED_SHELL('',(#667,#668,#669,#670,#671,#672,#673,#674,#675,#676,
#677,#678,#679,#680,#681,#682,#683,#684,#685,#686,#687,#688,#689,#690,#691,
#692,#693,#694,#695,#696,#697));
#714=CLOSED_SHELL('',(#698,#699,#700,#701,#702,#703,#704,#705,#706,#707,
#708,#709,#710,#711,#712));
#715=STYLED_ITEM('',(#717),#731);
#716=STYLED_ITEM('',(#718),#732);
#717=PRESENTATION_STYLE_ASSIGNMENT((#719));
#718=PRESENTATION_STYLE_ASSIGNMENT((#720));
#719=SURFACE_STYLE_USAGE(.BOTH.,#721);
#720=SURFACE_STYLE_USAGE(.BOTH.,#722);
#721=SURFACE_SIDE_STYLE('',(#723));
#722=SURFACE_SIDE_STYLE('',(#724));
#723=SURFACE_STYLE_FILL_AREA(#725);
#724=SURFACE_STYLE_FILL_AREA(#726);
#725=FILL_AREA_STYLE('',(#727));
#726=FILL_AREA_STYLE('',(#728));
#727=FILL_AREA_STYLE_COLOUR('',#729);
#728=FILL_AREA_STYLE_COLOUR('',#730);
#729=COLOUR_RGB('',0.615686274509804,0.811764705882353,0.929411764705882);
#730=COLOUR_RGB('',0.231372549019608,0.380392156862745,0.705882352941177);
#731=MANIFOLD_SOLID_BREP('Part 1',#713);
#732=MANIFOLD_SOLID_BREP('Part 2',#714);
#733=SHAPE_DEFINITION_REPRESENTATION(#1253,#735);
#734=SHAPE_DEFINITION_REPRESENTATION(#1254,#736);
#735=SHAPE_REPRESENTATION('Part 1',(#737),#1243);
#736=SHAPE_REPRESENTATION('Part 2',(#789),#1244);
#737=AXIS2_PLACEMENT_3D('',#1040,#817,#818);
#738=AXIS2_PLACEMENT_3D('',#1041,#819,#820);
#739=AXIS2_PLACEMENT_3D('',#1050,#825,#826);
#740=AXIS2_PLACEMENT_3D('',#1067,#835,#836);
#741=AXIS2_PLACEMENT_3D('',#1071,#838,#839);
#742=AXIS2_PLACEMENT_3D('',#1075,#841,#842);
#743=AXIS2_PLACEMENT_3D('',#1076,#843,#844);
#744=AXIS2_PLACEMENT_3D('',#1080,#846,#847);
#745=AXIS2_PLACEMENT_3D('',#1086,#851,#852);
#746=AXIS2_PLACEMENT_3D('',#1092,#856,#857);
#747=AXIS2_PLACEMENT_3D('',#1098,#861,#862);
#748=AXIS2_PLACEMENT_3D('',#1104,#866,#867);
#749=AXIS2_PLACEMENT_3D('',#1113,#872,#873);
#750=AXIS2_PLACEMENT_3D('',#1117,#876,#877);
#751=AXIS2_PLACEMENT_3D('',#1121,#880,#881);
#752=AXIS2_PLACEMENT_3D('',#1123,#883,#884);
#753=AXIS2_PLACEMENT_3D('',#1124,#885,#886);
#754=AXIS2_PLACEMENT_3D('',#1126,#887,#888);
#755=AXIS2_PLACEMENT_3D('',#1128,#889,#890);
#756=AXIS2_PLACEMENT_3D('',#1129,#891,#892);
#757=AXIS2_PLACEMENT_3D('',#1130,#893,#894);
#758=AXIS2_PLACEMENT_3D('',#1131,#895,#896);
#759=AXIS2_PLACEMENT_3D('',#1132,#897,#898);
#760=AXIS2_PLACEMENT_3D('',#1133,#899,#900);
#761=AXIS2_PLACEMENT_3D('',#1134,#901,#902);
#762=AXIS2_PLACEMENT_3D('',#1137,#904,#905);
#763=AXIS2_PLACEMENT_3D('',#1138,#906,#907);
#764=AXIS2_PLACEMENT_3D('',#1139,#908,#909);
#765=AXIS2_PLACEMENT_3D('',#1140,#910,#911);
#766=AXIS2_PLACEMENT_3D('',#1141,#912,#913);
#767=AXIS2_PLACEMENT_3D('',#1142,#914,#915);
#768=AXIS2_PLACEMENT_3D('',#1143,#916,#917);
#769=AXIS2_PLACEMENT_3D('',#1144,#918,#919);
#770=AXIS2_PLACEMENT_3D('',#1145,#920,#921);
#771=AXIS2_PLACEMENT_3D('',#1146,#922,#923);
#772=AXIS2_PLACEMENT_3D('',#1149,#925,#926);
#773=AXIS2_PLACEMENT_3D('',#1151,#928,#929);
#774=AXIS2_PLACEMENT_3D('',#1152,#930,#931);
#775=AXIS2_PLACEMENT_3D('',#1153,#932,#933);
#776=AXIS2_PLACEMENT_3D('',#1154,#934,#935);
#777=AXIS2_PLACEMENT_3D('',#1155,#936,#937);
#778=AXIS2_PLACEMENT_3D('',#1156,#938,#939);
#779=AXIS2_PLACEMENT_3D('',#1157,#940,#941);
#780=AXIS2_PLACEMENT_3D('',#1160,#944,#945);
#781=AXIS2_PLACEMENT_3D('',#1162,#947,#948);
#782=AXIS2_PLACEMENT_3D('',#1164,#950,#951);
#783=AXIS2_PLACEMENT_3D('',#1165,#952,#953);
#784=AXIS2_PLACEMENT_3D('',#1166,#954,#955);
#785=AXIS2_PLACEMENT_3D('',#1168,#956,#957);
#786=AXIS2_PLACEMENT_3D('',#1169,#958,#959);
#787=AXIS2_PLACEMENT_3D('',#1170,#960,#961);
#788=AXIS2_PLACEMENT_3D('',#1172,#962,#963);
#789=AXIS2_PLACEMENT_3D('',#1173,#964,#965);
#790=AXIS2_PLACEMENT_3D('',#1174,#966,#967);
#791=AXIS2_PLACEMENT_3D('',#1183,#972,#973);
#792=AXIS2_PLACEMENT_3D('',#1187,#975,#976);
#793=AXIS2_PLACEMENT_3D('',#1191,#978,#979);
#794=AXIS2_PLACEMENT_3D('',#1195,#981,#982);
#795=AXIS2_PLACEMENT_3D('',#1199,#984,#985);
#796=AXIS2_PLACEMENT_3D('',#1208,#990,#991);
#797=AXIS2_PLACEMENT_3D('',#1214,#995,#996);
#798=AXIS2_PLACEMENT_3D('',#1218,#999,#1000);
#799=AXIS2_PLACEMENT_3D('',#1222,#1003,#1004);
#800=AXIS2_PLACEMENT_3D('',#1224,#1006,#1007);
#801=AXIS2_PLACEMENT_3D('',#1225,#1008,#1009);
#802=AXIS2_PLACEMENT_3D('',#1226,#1010,#1011);
#803=AXIS2_PLACEMENT_3D('',#1227,#1012,#1013);
#804=AXIS2_PLACEMENT_3D('',#1228,#1014,#1015);
#805=AXIS2_PLACEMENT_3D('',#1229,#1016,#1017);
#806=AXIS2_PLACEMENT_3D('',#1230,#1018,#1019);
#807=AXIS2_PLACEMENT_3D('',#1231,#1020,#1021);
#808=AXIS2_PLACEMENT_3D('',#1232,#1022,#1023);
#809=AXIS2_PLACEMENT_3D('',#1233,#1024,#1025);
#810=AXIS2_PLACEMENT_3D('',#1234,#1026,#1027);
#811=AXIS2_PLACEMENT_3D('',#1235,#1028,#1029);
#812=AXIS2_PLACEMENT_3D('',#1236,#1030,#1031);
#813=AXIS2_PLACEMENT_3D('',#1237,#1032,#1033);
#814=AXIS2_PLACEMENT_3D('',#1238,#1034,#1035);
#815=AXIS2_PLACEMENT_3D('',#1239,#1036,#1037);
#816=AXIS2_PLACEMENT_3D('',#1240,#1038,#1039);
#817=DIRECTION('',(0.,0.,1.));
#818=DIRECTION('',(1.,0.,0.));
#819=DIRECTION('',(0.,1.,0.));
#820=DIRECTION('',(0.,0.,1.));
#821=DIRECTION('',(0.,0.,-1.));
#822=DIRECTION('',(-1.,0.,0.));
#823=DIRECTION('',(0.,0.,-1.));
#824=DIRECTION('',(1.,0.,0.));
#825=DIRECTION('',(0.,1.,0.));
#826=DIRECTION('',(0.,0.,1.));
#827=DIRECTION('',(1.,0.,0.));
#828=DIRECTION('',(0.,0.,-1.));
#829=DIRECTION('',(1.,0.,0.));
#830=DIRECTION('',(0.,0.,-1.));
#831=DIRECTION('',(-1.,0.,0.));
#832=DIRECTION('',(0.,0.,-1.));
#833=DIRECTION('',(1.,0.,0.));
#834=DIRECTION('',(0.,0.,-1.));
#835=DIRECTION('',(0.,0.,1.));
#836=DIRECTION('',(1.,0.,0.));
#837=DIRECTION('',(1.,0.,0.));
#838=DIRECTION('',(0.,0.,1.));
#839=DIRECTION('',(1.,0.,0.));
#840=DIRECTION('',(-2.08166817117217E-16,1.,0.));
#841=DIRECTION('',(0.,0.,1.));
#842=DIRECTION('',(1.,0.,0.));
#843=DIRECTION('',(0.,0.,1.));
#844=DIRECTION('',(1.,0.,0.));
#845=DIRECTION('',(0.,1.,0.));
#846=DIRECTION('',(0.,0.,1.));
#847=DIRECTION('',(1.,0.,0.));
#848=DIRECTION('',(1.,0.,0.));
#849=DIRECTION('',(0.,1.,0.));
#850=DIRECTION('',(-2.08166817117217E-16,1.,0.));
#851=DIRECTION('',(-1.,0.,0.));
#852=DIRECTION('',(0.,0.,1.));
#853=DIRECTION('',(0.,1.,0.));
#854=DIRECTION('',(0.,0.,-1.));
#855=DIRECTION('',(0.,0.,-1.));
#856=DIRECTION('',(0.,1.,0.));
#857=DIRECTION('',(0.,0.,1.));
#858=DIRECTION('',(1.,0.,0.));
#859=DIRECTION('',(0.,0.,-1.));
#860=DIRECTION('',(0.,0.,-1.));
#861=DIRECTION('',(-1.,-2.08166817117217E-16,0.));
#862=DIRECTION('',(2.08166817117217E-16,-1.,0.));
#863=DIRECTION('',(0.,0.,-1.));
#864=DIRECTION('',(-2.08166817117217E-16,1.,0.));
#865=DIRECTION('',(0.,0.,-1.));
#866=DIRECTION('',(0.,0.,1.));
#867=DIRECTION('',(1.,0.,0.));
#868=DIRECTION('',(1.,0.,0.));
#869=DIRECTION('',(0.,1.,0.));
#870=DIRECTION('',(1.,0.,0.));
#871=DIRECTION('',(-2.08166817117217E-16,1.,0.));
#872=DIRECTION('',(-1.,0.,0.));
#873=DIRECTION('',(0.,0.,1.));
#874=DIRECTION('',(0.,1.,0.));
#875=DIRECTION('',(0.,0.,-1.));
#876=DIRECTION('',(0.,1.,0.));
#877=DIRECTION('',(0.,0.,1.));
#878=DIRECTION('',(1.,0.,0.));
#879=DIRECTION('',(0.,0.,-1.));
#880=DIRECTION('',(-1.,-2.08166817117217E-16,0.));
#881=DIRECTION('',(2.08166817117217E-16,-1.,0.));
#882=DIRECTION('',(-2.08166817117217E-16,1.,0.));
#883=DIRECTION('',(0.,0.,1.));
#884=DIRECTION('',(1.,0.,0.));
#885=DIRECTION('',(0.,0.,1.));
#886=DIRECTION('',(1.,0.,0.));
#887=DIRECTION('',(0.,0.,1.));
#888=DIRECTION('',(1.,0.,0.));
#889=DIRECTION('',(0.,0.,-1.));
#890=DIRECTION('',(-1.,0.,0.));
#891=DIRECTION('',(0.,0.,-1.));
#892=DIRECTION('',(-1.,0.,0.));
#893=DIRECTION('',(-2.08166817117217E-16,1.,0.));
#894=DIRECTION('',(-1.,-2.08166817117217E-16,0.));
#895=DIRECTION('',(0.,1.,2.31296463463575E-15));
#896=DIRECTION('',(0.,-2.31296463463575E-15,1.));
#897=DIRECTION('',(0.,-1.,0.));
#898=DIRECTION('',(0.,0.,-1.));
#899=DIRECTION('',(0.,0.,1.));
#900=DIRECTION('',(1.,0.,0.));
#901=DIRECTION('',(-2.89120579329468E-16,0.,-1.));
#902=DIRECTION('',(-1.,0.,2.89120579329468E-16));
#903=DIRECTION('',(0.,0.,-1.));
#904=DIRECTION('',(1.,0.,-2.89120579329468E-16));
#905=DIRECTION('',(-2.89120579329468E-16,0.,-1.));
#906=DIRECTION('',(1.,0.,0.));
#907=DIRECTION('',(0.,0.,-1.));
#908=DIRECTION('',(1.,0.,-2.89120579329468E-16));
#909=DIRECTION('',(-2.89120579329468E-16,0.,-1.));
#910=DIRECTION('',(1.,0.,0.));
#911=DIRECTION('',(0.,0.,-1.));
#912=DIRECTION('',(0.,0.,1.));
#913=DIRECTION('',(1.,0.,0.));
#914=DIRECTION('',(-2.89120579329468E-16,0.,-1.));
#915=DIRECTION('',(-1.,0.,2.89120579329468E-16));
#916=DIRECTION('',(1.,0.,0.));
#917=DIRECTION('',(0.,0.,-1.));
#918=DIRECTION('',(-1.,0.,0.));
#919=DIRECTION('',(0.,0.,1.));
#920=DIRECTION('',(-1.,0.,0.));
#921=DIRECTION('',(0.,0.,1.));
#922=DIRECTION('',(-1.,0.,0.));
#923=DIRECTION('',(0.,0.,1.));
#924=DIRECTION('',(1.,0.,0.));
#925=DIRECTION('',(0.,0.,-1.));
#926=DIRECTION('',(-1.,0.,0.));
#927=DIRECTION('',(0.,0.,-1.));
#928=DIRECTION('',(0.,0.,-1.));
#929=DIRECTION('',(-1.,0.,0.));
#930=DIRECTION('',(0.,-1.,-2.89120579329468E-16));
#931=DIRECTION('',(0.,2.89120579329468E-16,-1.));
#932=DIRECTION('',(0.,-1.,0.));
#933=DIRECTION('',(0.,0.,-1.));
#934=DIRECTION('',(0.,1.,0.));
#935=DIRECTION('',(0.,0.,1.));
#936=DIRECTION('',(-2.31296463463575E-15,1.,0.));
#937=DIRECTION('',(-1.,-2.31296463463575E-15,0.));
#938=DIRECTION('',(0.,-1.,0.));
#939=DIRECTION('',(0.,0.,-1.));
#940=DIRECTION('',(0.,0.,-1.));
#941=DIRECTION('',(-1.,0.,0.));
#942=DIRECTION('',(0.,1.,0.));
#943=DIRECTION('',(0.,1.,0.));
#944=DIRECTION('',(1.,0.,0.));
#945=DIRECTION('',(0.,0.,-1.));
#946=DIRECTION('',(0.,1.,0.));
#947=DIRECTION('',(0.,0.,-1.));
#948=DIRECTION('',(-1.,0.,0.));
#949=DIRECTION('',(0.,1.,0.));
#950=DIRECTION('',(-1.,0.,0.));
#951=DIRECTION('',(0.,0.,1.));
#952=DIRECTION('',(0.,0.,-1.));
#953=DIRECTION('',(-1.,0.,0.));
#954=DIRECTION('',(0.,0.,1.));
#955=DIRECTION('',(1.,0.,0.));
#956=DIRECTION('',(0.,0.,1.));
#957=DIRECTION('',(1.,0.,0.));
#958=DIRECTION('',(0.,0.,-1.));
#959=DIRECTION('',(-1.,0.,0.));
#960=DIRECTION('',(0.,0.,1.));
#961=DIRECTION('',(1.,0.,0.));
#962=DIRECTION('',(0.,0.,1.));
#963=DIRECTION('',(1.,0.,0.));
#964=DIRECTION('',(0.,0.,1.));
#965=DIRECTION('',(1.,0.,0.));
#966=DIRECTION('',(0.,0.,1.));
#967=DIRECTION('',(1.,0.,0.));
#968=DIRECTION('',(1.,0.,0.));
#969=DIRECTION('',(0.,1.,0.));
#970=DIRECTION('',(1.,0.,0.));
#971=DIRECTION('',(-2.08166817117217E-16,1.,0.));
#972=DIRECTION('',(0.,0.,1.));
#973=DIRECTION('',(1.,0.,0.));
#974=DIRECTION('',(0.,1.,0.));
#975=DIRECTION('',(0.,0.,1.));
#976=DIRECTION('',(1.,0.,0.));
#977=DIRECTION('',(1.,0.,0.));
#978=DIRECTION('',(0.,0.,1.));
#979=DIRECTION('',(1.,0.,0.));
#980=DIRECTION('',(2.08166817117217E-16,-1.,0.));
#981=DIRECTION('',(0.,0.,1.));
#982=DIRECTION('',(1.,0.,0.));
#983=DIRECTION('',(-1.,0.,0.));
#984=DIRECTION('',(0.,0.,1.));
#985=DIRECTION('',(1.,0.,0.));
#986=DIRECTION('',(0.,1.,0.));
#987=DIRECTION('',(1.,0.,0.));
#988=DIRECTION('',(-2.08166817117217E-16,1.,0.));
#989=DIRECTION('',(1.,0.,0.));
#990=DIRECTION('',(-1.,0.,0.));
#991=DIRECTION('',(0.,0.,1.));
#992=DIRECTION('',(0.,0.,-1.));
#993=DIRECTION('',(0.,0.,-1.));
#994=DIRECTION('',(0.,1.,0.));
#995=DIRECTION('',(0.,1.,0.));
#996=DIRECTION('',(0.,0.,1.));
#997=DIRECTION('',(1.,0.,0.));
#998=DIRECTION('',(0.,0.,-1.));
#999=DIRECTION('',(-1.,-2.08166817117217E-16,0.));
#1000=DIRECTION('',(2.08166817117217E-16,-1.,0.));
#1001=DIRECTION('',(-2.08166817117217E-16,1.,0.));
#1002=DIRECTION('',(0.,0.,-1.));
#1003=DIRECTION('',(0.,1.,0.));
#1004=DIRECTION('',(0.,0.,1.));
#1005=DIRECTION('',(1.,0.,0.));
#1006=DIRECTION('',(0.,0.,1.));
#1007=DIRECTION('',(1.,0.,0.));
#1008=DIRECTION('',(0.,0.,1.));
#1009=DIRECTION('',(1.,0.,0.));
#1010=DIRECTION('',(-1.,0.,0.));
#1011=DIRECTION('',(0.,0.,1.));
#1012=DIRECTION('',(0.,1.,0.));
#1013=DIRECTION('',(0.,0.,1.));
#1014=DIRECTION('',(2.08166817117217E-16,-1.,0.));
#1015=DIRECTION('',(1.,2.08166817117217E-16,0.));
#1016=DIRECTION('',(0.,1.,0.));
#1017=DIRECTION('',(0.,0.,1.));
#1018=DIRECTION('',(-1.,0.,0.));
#1019=DIRECTION('',(0.,0.,1.));
#1020=DIRECTION('',(-1.,0.,0.));
#1021=DIRECTION('',(0.,0.,1.));
#1022=DIRECTION('',(0.,0.,1.));
#1023=DIRECTION('',(1.,0.,0.));
#1024=DIRECTION('',(-1.,0.,0.));
#1025=DIRECTION('',(0.,0.,1.));
#1026=DIRECTION('',(0.,0.,1.));
#1027=DIRECTION('',(1.,0.,0.));
#1028=DIRECTION('',(0.,1.,0.));
#1029=DIRECTION('',(0.,0.,1.));
#1030=DIRECTION('',(1.,0.,0.));
#1031=DIRECTION('',(0.,0.,-1.));
#1032=DIRECTION('',(-1.,0.,0.));
#1033=DIRECTION('',(0.,0.,1.));
#1034=DIRECTION('',(0.,1.,0.));
#1035=DIRECTION('',(0.,0.,1.));
#1036=DIRECTION('',(0.,1.,0.));
#1037=DIRECTION('',(0.,0.,1.));
#1038=DIRECTION('',(0.,0.,1.));
#1039=DIRECTION('',(1.,0.,0.));
#1040=CARTESIAN_POINT('',(0.,0.,0.));
#1041=CARTESIAN_POINT('',(-0.000796000000000019,0.046406,0.029));
#1042=CARTESIAN_POINT('',(0.014204,0.046406,0.));
#1043=CARTESIAN_POINT('',(0.014204,0.046406,0.029));
#1044=CARTESIAN_POINT('',(0.014204,0.046406,0.00763114360945048));
#1045=CARTESIAN_POINT('',(-0.000796,0.046406,0.00763114360945048));
#1046=CARTESIAN_POINT('',(-0.015796,0.046406,0.00763114360945048));
#1047=CARTESIAN_POINT('',(-0.015796,0.046406,0.029));
#1048=CARTESIAN_POINT('',(-0.015796,0.046406,0.029));
#1049=CARTESIAN_POINT('',(-0.000796000000000019,0.046406,0.029));
#1050=CARTESIAN_POINT('',(-0.000796000000000019,0.044406,0.029));
#1051=CARTESIAN_POINT('',(-0.000796000000000019,0.044406,0.002));
#1052=CARTESIAN_POINT('',(-0.016796,0.044406,0.002));
#1053=CARTESIAN_POINT('',(0.015204,0.044406,0.002));
#1054=CARTESIAN_POINT('',(0.015204,0.044406,0.029));
#1055=CARTESIAN_POINT('',(0.015204,0.044406,0.029));
#1056=CARTESIAN_POINT('',(-0.000796000000000019,0.044406,0.029));
#1057=CARTESIAN_POINT('',(-0.016796,0.044406,0.029));
#1058=CARTESIAN_POINT('',(-0.016796,0.044406,0.029));
#1059=CARTESIAN_POINT('',(-0.000796,0.044406,0.00763114360945048));
#1060=CARTESIAN_POINT('',(0.014204,0.044406,0.00763114360945048));
#1061=CARTESIAN_POINT('',(-0.015796,0.044406,0.00763114360945048));
#1062=CARTESIAN_POINT('',(0.014204,0.044406,0.));
#1063=CARTESIAN_POINT('',(0.014204,0.044406,0.003));
#1064=CARTESIAN_POINT('',(-0.018796,0.044406,0.003));
#1065=CARTESIAN_POINT('',(-0.015796,0.044406,0.003));
#1066=CARTESIAN_POINT('',(-0.015796,0.044406,0.029));
#1067=CARTESIAN_POINT('',(-0.000796000000000009,-0.003594,0.029));
#1068=CARTESIAN_POINT('',(-0.000796,-0.053594,0.029));
#1069=CARTESIAN_POINT('',(-0.015796,-0.053594,0.029));
#1070=CARTESIAN_POINT('',(0.014204,-0.053594,0.029));
#1071=CARTESIAN_POINT('',(0.014204,-0.050594,0.029));
#1072=CARTESIAN_POINT('',(0.017204,-0.050594,0.029));
#1073=CARTESIAN_POINT('',(0.017204,-0.003594,0.029));
#1074=CARTESIAN_POINT('',(0.017204,0.043406,0.029));
#1075=CARTESIAN_POINT('',(0.014204,0.043406,0.029));
#1076=CARTESIAN_POINT('',(-0.015796,0.043406,0.029));
#1077=CARTESIAN_POINT('',(-0.018796,0.043406,0.029));
#1078=CARTESIAN_POINT('',(-0.018796,-0.003594,0.029));
#1079=CARTESIAN_POINT('',(-0.018796,-0.050594,0.029));
#1080=CARTESIAN_POINT('',(-0.015796,-0.050594,0.029));
#1081=CARTESIAN_POINT('',(-0.000796,-0.051594,0.029));
#1082=CARTESIAN_POINT('',(-0.016796,-0.051594,0.029));
#1083=CARTESIAN_POINT('',(0.015204,-0.051594,0.029));
#1084=CARTESIAN_POINT('',(-0.016796,-0.003594,0.029));
#1085=CARTESIAN_POINT('',(0.015204,-0.003594,0.029));
#1086=CARTESIAN_POINT('',(-0.018796,-0.003594,0.029));
#1087=CARTESIAN_POINT('',(-0.018796,-0.053594,0.003));
#1088=CARTESIAN_POINT('',(-0.018796,0.043406,0.003));
#1089=CARTESIAN_POINT('',(-0.018796,-0.050594,0.003));
#1090=CARTESIAN_POINT('',(-0.018796,-0.050594,0.029));
#1091=CARTESIAN_POINT('',(-0.018796,0.043406,0.029));
#1092=CARTESIAN_POINT('',(-0.000796,-0.053594,0.029));
#1093=CARTESIAN_POINT('',(-0.000796,-0.053594,0.003));
#1094=CARTESIAN_POINT('',(-0.015796,-0.053594,0.003));
#1095=CARTESIAN_POINT('',(0.014204,-0.053594,0.003));
#1096=CARTESIAN_POINT('',(0.014204,-0.053594,0.029));
#1097=CARTESIAN_POINT('',(-0.015796,-0.053594,0.));
#1098=CARTESIAN_POINT('',(0.017204,-0.003594,0.029));
#1099=CARTESIAN_POINT('',(0.017204,-0.050594,0.029));
#1100=CARTESIAN_POINT('',(0.017204,-0.050594,0.003));
#1101=CARTESIAN_POINT('',(0.017204,-0.003594,0.003));
#1102=CARTESIAN_POINT('',(0.017204,0.043406,0.003));
#1103=CARTESIAN_POINT('',(0.017204,0.043406,0.029));
#1104=CARTESIAN_POINT('',(-0.000796000000000009,-0.003594,0.));
#1105=CARTESIAN_POINT('',(-0.000796000000000009,-0.050594,0.));
#1106=CARTESIAN_POINT('',(0.014204,-0.050594,0.));
#1107=CARTESIAN_POINT('',(-0.015796,-0.050594,0.));
#1108=CARTESIAN_POINT('',(-0.015796,0.046406,0.));
#1109=CARTESIAN_POINT('',(-0.015796,0.043406,0.));
#1110=CARTESIAN_POINT('',(0.017204,0.043406,0.));
#1111=CARTESIAN_POINT('',(0.014204,0.043406,0.));
#1112=CARTESIAN_POINT('',(0.014204,-0.003594,0.));
#1113=CARTESIAN_POINT('',(-0.016796,-0.003594,0.029));
#1114=CARTESIAN_POINT('',(-0.016796,-0.003594,0.002));
#1115=CARTESIAN_POINT('',(-0.016796,-0.051594,0.002));
#1116=CARTESIAN_POINT('',(-0.016796,-0.051594,0.029));
#1117=CARTESIAN_POINT('',(-0.000796,-0.051594,0.029));
#1118=CARTESIAN_POINT('',(-0.000796,-0.051594,0.002));
#1119=CARTESIAN_POINT('',(0.015204,-0.051594,0.002));
#1120=CARTESIAN_POINT('',(0.015204,-0.051594,0.029));
#1121=CARTESIAN_POINT('',(0.015204,-0.003594,0.029));
#1122=CARTESIAN_POINT('',(0.015204,-0.003594,0.002));
#1123=CARTESIAN_POINT('',(-0.000796000000000009,-0.003594,0.002));
#1124=CARTESIAN_POINT('',(0.006954,-0.046594,0.002));
#1125=CARTESIAN_POINT('',(0.008224,-0.046594,0.002));
#1126=CARTESIAN_POINT('',(-0.008546,-0.046594,0.002));
#1127=CARTESIAN_POINT('',(-0.007276,-0.046594,0.002));
#1128=CARTESIAN_POINT('',(0.014204,-0.050594,0.029));
#1129=CARTESIAN_POINT('',(0.014204,-0.050594,0.003));
#1130=CARTESIAN_POINT('',(0.014204,-0.003594,0.003));
#1131=CARTESIAN_POINT('',(0.014204,0.043406,0.003));
#1132=CARTESIAN_POINT('',(0.014204,-0.050594,0.003));
#1133=CARTESIAN_POINT('',(0.014204,0.043406,0.029));
#1134=CARTESIAN_POINT('',(0.014204,0.043406,0.003));
#1135=CARTESIAN_POINT('',(0.014204,0.046406,0.003));
#1136=CARTESIAN_POINT('',(0.014204,0.046406,0.));
#1137=CARTESIAN_POINT('',(0.014204,-0.050594,0.003));
#1138=CARTESIAN_POINT('',(0.014204,-0.050594,0.003));
#1139=CARTESIAN_POINT('',(0.014204,0.043406,0.003));
#1140=CARTESIAN_POINT('',(0.014204,0.043406,0.003));
#1141=CARTESIAN_POINT('',(-0.015796,-0.050594,0.029));
#1142=CARTESIAN_POINT('',(-0.015796,-0.050594,0.003));
#1143=CARTESIAN_POINT('',(-0.000796,-0.050594,0.003));
#1144=CARTESIAN_POINT('',(-0.015796,-0.050594,0.003));
#1145=CARTESIAN_POINT('',(-0.000796000000000009,0.043406,0.003));
#1146=CARTESIAN_POINT('',(-0.015796,0.043406,0.003));
#1147=CARTESIAN_POINT('',(-0.015796,0.046406,0.003));
#1148=CARTESIAN_POINT('',(-0.018796,0.046406,0.003));
#1149=CARTESIAN_POINT('',(-0.015796,0.043406,0.029));
#1150=CARTESIAN_POINT('',(-0.015796,0.046406,0.029));
#1151=CARTESIAN_POINT('',(-0.015796,0.043406,0.003));
#1152=CARTESIAN_POINT('',(-0.015796,-0.050594,0.003));
#1153=CARTESIAN_POINT('',(-0.015796,-0.050594,0.003));
#1154=CARTESIAN_POINT('',(-0.015796,0.043406,0.003));
#1155=CARTESIAN_POINT('',(-0.015796,0.043406,0.003));
#1156=CARTESIAN_POINT('',(-0.015796,-0.003594,0.003));
#1157=CARTESIAN_POINT('',(-0.000796,0.044406,0.00763114360945048));
#1158=CARTESIAN_POINT('',(0.014204,0.044406,0.00763114360945048));
#1159=CARTESIAN_POINT('',(-0.015796,0.044406,0.00763114360945048));
#1160=CARTESIAN_POINT('',(0.014204,0.044406,0.));
#1161=CARTESIAN_POINT('',(0.014204,0.044406,0.003));
#1162=CARTESIAN_POINT('',(-0.018796,0.044406,0.003));
#1163=CARTESIAN_POINT('',(-0.015796,0.044406,0.003));
#1164=CARTESIAN_POINT('',(-0.015796,0.044406,0.029));
#1165=CARTESIAN_POINT('',(-0.008546,-0.046594,0.007));
#1166=CARTESIAN_POINT('',(-0.008546,-0.046594,0.007));
#1167=CARTESIAN_POINT('',(-0.007276,-0.046594,0.007));
#1168=CARTESIAN_POINT('',(-0.000796,-0.003594,0.007));
#1169=CARTESIAN_POINT('',(0.006954,-0.046594,0.007));
#1170=CARTESIAN_POINT('',(0.006954,-0.046594,0.007));
#1171=CARTESIAN_POINT('',(0.008224,-0.046594,0.007));
#1172=CARTESIAN_POINT('',(-0.000796,-0.003594,0.007));
#1173=CARTESIAN_POINT('',(0.,0.,0.));
#1174=CARTESIAN_POINT('',(-0.044738,-0.003594,0.033286));
#1175=CARTESIAN_POINT('',(-0.044738,0.043406,0.033286));
#1176=CARTESIAN_POINT('',(-0.029738,0.043406,0.033286));
#1177=CARTESIAN_POINT('',(-0.059738,0.043406,0.033286));
#1178=CARTESIAN_POINT('',(-0.059738,-0.003594,0.033286));
#1179=CARTESIAN_POINT('',(-0.059738,-0.050594,0.033286));
#1180=CARTESIAN_POINT('',(-0.029738,-0.050594,0.033286));
#1181=CARTESIAN_POINT('',(-0.029738,-0.050594,0.033286));
#1182=CARTESIAN_POINT('',(-0.029738,0.043406,0.033286));
#1183=CARTESIAN_POINT('',(-0.044738,-0.003594,0.031286));
#1184=CARTESIAN_POINT('',(-0.0625664271247462,-0.050594,0.031286));
#1185=CARTESIAN_POINT('',(-0.0625664271247462,-0.050594,0.031286));
#1186=CARTESIAN_POINT('',(-0.0625664271247462,0.043406,0.031286));
#1187=CARTESIAN_POINT('',(-0.059738,0.043406,0.031286));
#1188=CARTESIAN_POINT('',(-0.059738,0.0462344271247462,0.031286));
#1189=CARTESIAN_POINT('',(-0.059738,0.0462344271247462,0.031286));
#1190=CARTESIAN_POINT('',(-0.029738,0.0462344271247462,0.031286));
#1191=CARTESIAN_POINT('',(-0.029738,0.043406,0.031286));
#1192=CARTESIAN_POINT('',(-0.0269095728752538,0.043406,0.031286));
#1193=CARTESIAN_POINT('',(-0.0269095728752538,0.043406,0.031286));
#1194=CARTESIAN_POINT('',(-0.0269095728752538,-0.050594,0.031286));
#1195=CARTESIAN_POINT('',(-0.029738,-0.050594,0.031286));
#1196=CARTESIAN_POINT('',(-0.029738,-0.0534224271247462,0.031286));
#1197=CARTESIAN_POINT('',(-0.029738,-0.0534224271247462,0.031286));
#1198=CARTESIAN_POINT('',(-0.059738,-0.0534224271247462,0.031286));
#1199=CARTESIAN_POINT('',(-0.059738,-0.050594,0.031286));
#1200=CARTESIAN_POINT('',(-0.060738,-0.003594,0.031286));
#1201=CARTESIAN_POINT('',(-0.060738,-0.051594,0.031286));
#1202=CARTESIAN_POINT('',(-0.060738,0.044406,0.031286));
#1203=CARTESIAN_POINT('',(-0.044738,-0.051594,0.031286));
#1204=CARTESIAN_POINT('',(-0.028738,-0.051594,0.031286));
#1205=CARTESIAN_POINT('',(-0.028738,-0.003594,0.031286));
#1206=CARTESIAN_POINT('',(-0.028738,0.044406,0.031286));
#1207=CARTESIAN_POINT('',(-0.044738,0.044406,0.031286));
#1208=CARTESIAN_POINT('',(-0.060738,-0.003594,0.03154));
#1209=CARTESIAN_POINT('',(-0.060738,-0.051594,0.03154));
#1210=CARTESIAN_POINT('',(-0.060738,-0.051594,0.029));
#1211=CARTESIAN_POINT('',(-0.060738,0.044406,0.03154));
#1212=CARTESIAN_POINT('',(-0.060738,0.044406,0.029));
#1213=CARTESIAN_POINT('',(-0.060738,-0.003594,0.029));
#1214=CARTESIAN_POINT('',(-0.044738,-0.051594,0.03154));
#1215=CARTESIAN_POINT('',(-0.044738,-0.051594,0.029));
#1216=CARTESIAN_POINT('',(-0.028738,-0.051594,0.029));
#1217=CARTESIAN_POINT('',(-0.028738,-0.051594,0.03154));
#1218=CARTESIAN_POINT('',(-0.028738,-0.003594,0.03154));
#1219=CARTESIAN_POINT('',(-0.028738,-0.003594,0.029));
#1220=CARTESIAN_POINT('',(-0.028738,0.044406,0.029));
#1221=CARTESIAN_POINT('',(-0.028738,0.044406,0.03154));
#1222=CARTESIAN_POINT('',(-0.044738,0.044406,0.03154));
#1223=CARTESIAN_POINT('',(-0.044738,0.044406,0.029));
#1224=CARTESIAN_POINT('',(-0.044738,-0.003594,0.029));
#1225=CARTESIAN_POINT('',(-0.029738,-0.050594,0.030286));
#1226=CARTESIAN_POINT('',(-0.029738,-0.050594,0.030286));
#1227=CARTESIAN_POINT('',(-0.029738,-0.050594,0.030286));
#1228=CARTESIAN_POINT('',(-0.029738,-0.003594,0.030286));
#1229=CARTESIAN_POINT('',(-0.029738,0.043406,0.030286));
#1230=CARTESIAN_POINT('',(-0.044738,-0.050594,0.030286));
#1231=CARTESIAN_POINT('',(-0.059738,-0.050594,0.030286));
#1232=CARTESIAN_POINT('',(-0.029738,0.043406,0.030286));
#1233=CARTESIAN_POINT('',(-0.029738,0.043406,0.030286));
#1234=CARTESIAN_POINT('',(-0.059738,-0.050594,0.030286));
#1235=CARTESIAN_POINT('',(-0.059738,-0.050594,0.030286));
#1236=CARTESIAN_POINT('',(-0.044738,0.043406,0.030286));
#1237=CARTESIAN_POINT('',(-0.059738,0.043406,0.030286));
#1238=CARTESIAN_POINT('',(-0.059738,-0.003594,0.030286));
#1239=CARTESIAN_POINT('',(-0.059738,0.043406,0.030286));
#1240=CARTESIAN_POINT('',(-0.059738,0.043406,0.030286));
#1241=MECHANICAL_DESIGN_GEOMETRIC_PRESENTATION_REPRESENTATION('',(#715),
#1243);
#1242=MECHANICAL_DESIGN_GEOMETRIC_PRESENTATION_REPRESENTATION('',(#716),
#1244);
#1243=(
GEOMETRIC_REPRESENTATION_CONTEXT(3)
GLOBAL_UNCERTAINTY_ASSIGNED_CONTEXT((#1245))
GLOBAL_UNIT_ASSIGNED_CONTEXT((#1251,#1249,#1247))
REPRESENTATION_CONTEXT('Part 1','TOP_LEVEL_ASSEMBLY_PART')
);
#1244=(
GEOMETRIC_REPRESENTATION_CONTEXT(3)
GLOBAL_UNCERTAINTY_ASSIGNED_CONTEXT((#1246))
GLOBAL_UNIT_ASSIGNED_CONTEXT((#1252,#1250,#1248))
REPRESENTATION_CONTEXT('Part 2','TOP_LEVEL_ASSEMBLY_PART')
);
#1245=UNCERTAINTY_MEASURE_WITH_UNIT(LENGTH_MEASURE(1.E-8),#1251,
'DISTANCE_ACCURACY_VALUE','Maximum Tolerance applied to model');
#1246=UNCERTAINTY_MEASURE_WITH_UNIT(LENGTH_MEASURE(1.E-8),#1252,
'DISTANCE_ACCURACY_VALUE','Maximum Tolerance applied to model');
#1247=(
NAMED_UNIT(*)
SI_UNIT($,.STERADIAN.)
SOLID_ANGLE_UNIT()
);
#1248=(
NAMED_UNIT(*)
SI_UNIT($,.STERADIAN.)
SOLID_ANGLE_UNIT()
);
#1249=(
NAMED_UNIT(*)
PLANE_ANGLE_UNIT()
SI_UNIT($,.RADIAN.)
);
#1250=(
NAMED_UNIT(*)
PLANE_ANGLE_UNIT()
SI_UNIT($,.RADIAN.)
);
#1251=(
LENGTH_UNIT()
NAMED_UNIT(*)
SI_UNIT($,.METRE.)
);
#1252=(
LENGTH_UNIT()
NAMED_UNIT(*)
SI_UNIT($,.METRE.)
);
#1253=PRODUCT_DEFINITION_SHAPE('','',#1255);
#1254=PRODUCT_DEFINITION_SHAPE('','',#1256);
#1255=PRODUCT_DEFINITION('','',#1259,#1257);
#1256=PRODUCT_DEFINITION('','',#1260,#1258);
#1257=PRODUCT_DEFINITION_CONTEXT('',#1271,'design');
#1258=PRODUCT_DEFINITION_CONTEXT('',#1272,'design');
#1259=PRODUCT_DEFINITION_FORMATION_WITH_SPECIFIED_SOURCE('','',#1263,
 .NOT_KNOWN.);
#1260=PRODUCT_DEFINITION_FORMATION_WITH_SPECIFIED_SOURCE('','',#1264,
 .NOT_KNOWN.);
#1261=PRODUCT_RELATED_PRODUCT_CATEGORY('','',(#1263));
#1262=PRODUCT_RELATED_PRODUCT_CATEGORY('','',(#1264));
#1263=PRODUCT('Part 1','Part 1','Part 1',(#1267));
#1264=PRODUCT('Part 2','Part 2','Part 2',(#1268));
#1265=PRODUCT_CATEGORY('','');
#1266=PRODUCT_CATEGORY('','');
#1267=PRODUCT_CONTEXT('',#1271,'mechanical');
#1268=PRODUCT_CONTEXT('',#1272,'mechanical');
#1269=APPLICATION_PROTOCOL_DEFINITION('international standard',
'ap242_managed_model_based_3d_engineering',2020,#1271);
#1270=APPLICATION_PROTOCOL_DEFINITION('international standard',
'ap242_managed_model_based_3d_engineering',2020,#1272);
#1271=APPLICATION_CONTEXT('managed model based 3d engineering');
#1272=APPLICATION_CONTEXT('managed model based 3d engineering');
ENDSEC;
END-ISO-10303-21;
